<?xml version="1.0" encoding="utf-8"?>
<!-- Generator: Adobe Illustrator 19.2.1, SVG Export Plug-In . SVG Version: 6.00 Build 0)  -->
<svg version="1.1" id="Layer_1" xmlns="http://www.w3.org/2000/svg" xmlns:xlink="http://www.w3.org/1999/xlink" x="0px" y="0px"
	 viewBox="0 0 100 100" style="enable-background:new 0 0 100 100;" xml:space="preserve">
<style type="text/css">
	.st0{fill:#FF9900;}
	.st1{fill:#FFFFFF;}
</style>
<polygon class="st0" points="8.1,25.8 50,1.6 91.9,25.8 91.9,74.2 50,98.4 8.1,74.2 "/>
<g>
	<g>
		<path class="st1" d="M64.6,67.4c-0.1,1.4-6.5,1.4-14.4,1.4s-14.3,0-14.4-1.4H26c-0.3,0-0.7-0.1-1-0.2v2.2c0,1.3,1,2.3,2.3,2.3
			h45.4c1.3,0,2.3-1,2.3-2.3v-2.1c-0.1,0-0.2,0-0.3,0L64.6,67.4L64.6,67.4z"/>
		<path class="st1" d="M72.7,34.8H27.3c-1.3,0-2.3,1-2.3,2.3v4.1c0.3,0,0.7,0.1,1,0.1h48.7c0.1,0,0.2,0,0.3,0v-4.2
			C75,35.8,74,34.8,72.7,34.8z M30,39.5c-0.9,0-1.5-0.7-1.5-1.5s0.7-1.5,1.5-1.5c0.9,0,1.5,0.7,1.5,1.5S30.8,39.5,30,39.5z
			 M43.7,39.5c-0.9,0-1.5-0.7-1.5-1.5s0.7-1.5,1.5-1.5c0.9,0,1.5,0.7,1.5,1.5S44.6,39.5,43.7,39.5z M52.9,39.5
			c-0.9,0-1.5-0.7-1.5-1.5s0.7-1.5,1.5-1.5c0.9,0,1.5,0.7,1.5,1.5S53.7,39.5,52.9,39.5z M62,39.5c-0.9,0-1.5-0.7-1.5-1.5
			s0.7-1.5,1.5-1.5c0.9,0,1.5,0.7,1.5,1.5S62.9,39.5,62,39.5z M71.2,39.5c-0.9,0-1.5-0.7-1.5-1.5s0.7-1.5,1.5-1.5
			c0.9,0,1.5,0.7,1.5,1.5S72,39.5,71.2,39.5z"/>
		<path class="st1" d="M26,42.4c-0.4,0-0.7,0-1-0.1v23.8c0.3,0.1,0.6,0.2,1,0.2h12c2.6-0.4,7-0.4,12.1-0.4s9.6,0,12.1,0.4h12.4
			c0.1,0,0.2,0,0.3,0V42.4c-0.1,0-0.2,0-0.3,0H26z M69.6,60.8c0,1.3-1,2.3-2.3,2.3H32.7c-1.3,0-2.3-1-2.3-2.3V47.9
			c0-1.3,1-2.3,2.3-2.3h34.6c1.3,0,2.3,1,2.3,2.3C69.6,47.9,69.6,60.8,69.6,60.8z"/>
		<path class="st1" d="M73.2,28.3H27.4c-1.3,0-2.4,1-2.4,2.3v2.3c0,1.3,1.1,0.9,2.4,0.9h45.8c1.3,0,1.8,0.4,1.8-0.9v-2.3
			C75,29.3,74.4,28.3,73.2,28.3z"/>
	</g>
</g>
</svg>
