<?xml version="1.0" encoding="utf-8"?>
<!-- Generator: Adobe Illustrator 19.2.1, SVG Export Plug-In . SVG Version: 6.00 Build 0)  -->
<svg version="1.1" id="Layer_1" xmlns="http://www.w3.org/2000/svg" xmlns:xlink="http://www.w3.org/1999/xlink" x="0px" y="0px"
	 viewBox="0 0 100 100" style="enable-background:new 0 0 100 100;" xml:space="preserve">
<style type="text/css">
	.st0{fill:#FF9900;}
	.st1{fill:#FFFFFF;}
</style>
<polygon class="st0" points="8.1,25.8 50,1.6 91.9,25.8 91.9,74.2 50,98.4 8.1,74.2 "/>
<g>
	<path class="st1" d="M25,45.3c0,2.9,2,5.3,4.7,6v20.5h-3.1c-0.9,0-1.6,0.7-1.6,1.6s0.7,1.6,1.6,1.6h46.9c0.9,0,1.6-0.7,1.6-1.6
		s-0.7-1.6-1.6-1.6h-3.1V51.3c2.7-0.7,4.7-3.1,4.7-6v-1.6H25V45.3z M56.3,51.6c3.5,0,6.3-2.8,6.3-6.3c0,2.9,2,5.3,4.7,6v20.5H43.8
		V51.6c3.5,0,6.3-2.8,6.3-6.3C50,48.8,52.8,51.6,56.3,51.6z M42.2,51.3v20.5h-9.4V51.3c2.7-0.7,4.7-3.1,4.7-6
		C37.5,48.2,39.5,50.6,42.2,51.3z M68.8,29.7H31.3L25,42.2h50L68.8,29.7z M38.2,33.2l-3.1,6.3c-0.1,0.3-0.4,0.4-0.7,0.4
		c-0.1,0-0.2,0-0.3-0.1c-0.4-0.2-0.5-0.7-0.3-1l3.1-6.3c0.2-0.4,0.7-0.5,1-0.4C38.2,32.3,38.4,32.8,38.2,33.2z M44.5,33.2l-3.1,6.3
		c-0.1,0.3-0.4,0.4-0.7,0.4c-0.1,0-0.2,0-0.3-0.1c-0.4-0.2-0.5-0.7-0.3-1l3.1-6.3c0.2-0.4,0.7-0.5,1-0.4
		C44.5,32.3,44.6,32.8,44.5,33.2z M50.8,39.1c0,0.4-0.3,0.8-0.8,0.8c-0.4,0-0.8-0.3-0.8-0.8v-6.3c0-0.4,0.4-0.8,0.8-0.8
		c0.4,0,0.8,0.3,0.8,0.8V39.1z M59.8,39.7c-0.1,0.1-0.3,0.1-0.4,0.1c-0.3,0-0.5-0.1-0.7-0.4l-3.4-6.3c-0.2-0.4-0.1-0.9,0.3-1.1
		c0.4-0.2,0.9-0.1,1.1,0.3l3.4,6.3C60.3,39.1,60.1,39.5,59.8,39.7z M66,39.8c-0.1,0.1-0.2,0.1-0.3,0.1c-0.3,0-0.6-0.2-0.7-0.4
		l-3.1-6.3c-0.2-0.4,0-0.9,0.3-1c0.4-0.2,0.9,0,1,0.4l3.1,6.3C66.5,39.1,66.4,39.6,66,39.8z M38.3,62.7v-3.6
		c-0.5-0.3-0.8-0.8-0.8-1.3c0-0.9,0.7-1.6,1.6-1.6c0.9,0,1.6,0.7,1.6,1.6c0,0.6-0.3,1-0.8,1.3v3.6c0.5,0.3,0.8,0.8,0.8,1.3
		c0,0.9-0.7,1.6-1.6,1.6c-0.9,0-1.6-0.7-1.6-1.6C37.5,63.5,37.8,63,38.3,62.7z M31.3,26.6c0-0.9,0.7-1.6,1.6-1.6h34.4
		c0.9,0,1.6,0.7,1.6,1.6s-0.7,1.6-1.6,1.6H32.8C32,28.1,31.3,27.4,31.3,26.6z M52.4,59.9l-1.1-1.1l4.4-4.4l1.1,1.1L52.4,59.9z
		 M52.4,64.3l-1.1-1.1l8.8-8.8l1.1,1.1L52.4,64.3z M60.1,58.8l1.1,1.1l-4.4,4.4l-1.1-1.1L60.1,58.8z"/>
</g>
</svg>
