<?xml version="1.0" encoding="utf-8"?>
<!-- Generator: Adobe Illustrator 19.2.1, SVG Export Plug-In . SVG Version: 6.00 Build 0)  -->
<svg version="1.1" id="Layer_1" xmlns="http://www.w3.org/2000/svg" xmlns:xlink="http://www.w3.org/1999/xlink" x="0px" y="0px"
	 viewBox="0 0 100 100" style="enable-background:new 0 0 100 100;" xml:space="preserve">
<style type="text/css">
	.st0{fill:#FF9900;}
	.st1{fill:#FFFFFF;}
</style>
<polygon class="st0" points="8.1,25.8 50,1.6 91.9,25.8 91.9,74.2 50,98.4 8.1,74.2 "/>
<path class="st1" d="M67.1,44.9C66.5,43.7,65.3,43,64,43h-6.6l8-15.9c0.5-1.1,0.5-2.4-0.2-3.4c-0.6-1-1.8-1.7-3-1.7H44.7
	c-1.5,0-2.8,1-3.3,2.4l-8.7,26.2c-0.4,1.1-0.2,2.2,0.5,3.2c0.7,0.9,1.7,1.5,2.8,1.5h8.2L41.3,74c-0.2,1.6,0.7,3.2,2.2,3.8
	c0.4,0.2,0.9,0.2,1.3,0.2c1.1,0,2.2-0.5,2.9-1.5l19.2-28C67.6,47.4,67.7,46,67.1,44.9L67.1,44.9z"/>
</svg>
