<?xml version="1.0" encoding="utf-8"?>
<!-- Generator: Adobe Illustrator 19.2.1, SVG Export Plug-In . SVG Version: 6.00 Build 0)  -->
<svg version="1.1" id="Layer_1" xmlns="http://www.w3.org/2000/svg" xmlns:xlink="http://www.w3.org/1999/xlink" x="0px" y="0px"
	 viewBox="0 0 100 100" style="enable-background:new 0 0 100 100;" xml:space="preserve">
<style type="text/css">
	.st0{fill:#FF9900;}
	.st1{fill:#FFFFFF;}
</style>
<polygon class="st0" points="8.1,25.8 50,1.6 91.9,25.8 91.9,74.2 50,98.4 8.1,74.2 "/>
<g>
	<g id="Layer_1_114_">
		<g>
			<path class="st1" d="M32.8,45.5h-5.6c-1.3,0-2.3,1-2.3,2.3v25c0,1.3,1,2.3,2.3,2.3h5.6c1.3,0,2.3-1,2.3-2.3v-25
				C35.1,46.5,34.1,45.5,32.8,45.5z"/>
			<path class="st1" d="M46.1,52.3h-5.6c-1.3,0-2.3,1-2.3,2.3v18.2c0,1.3,1,2.3,2.3,2.3h5.6c1.3,0,2.3-1,2.3-2.3V54.5
				C48.4,53.3,47.4,52.3,46.1,52.3z"/>
			<path class="st1" d="M59.4,52.3h-5.6c-1.3,0-2.3,1-2.3,2.3v18.2c0,1.3,1,2.3,2.3,2.3h5.6c1.3,0,2.3-1,2.3-2.3V54.5
				C61.7,53.3,60.7,52.3,59.4,52.3z"/>
			<path class="st1" d="M72.7,45.5h-5.6c-1.3,0-2.3,1-2.3,2.3v25c0,1.3,1,2.3,2.3,2.3h5.6c1.3,0,2.3-1,2.3-2.3v-25
				C75,46.5,74,45.5,72.7,45.5z"/>
			<path class="st1" d="M50.7,38.7v4.1c1.2-0.1,2.5-0.7,2.5-2C53.2,39.4,51.8,38.9,50.7,38.7z"/>
			<path class="st1" d="M47.1,33.8c0,1,0.8,1.6,2.3,1.9V32C48,32.1,47.1,32.9,47.1,33.8z"/>
			<path class="st1" d="M50,25c-6.9,0-12.5,5.6-12.5,12.5S43.1,50,50,50s12.5-5.6,12.5-12.5S56.9,25,50,25z M50.7,44.9v1.3
				c0,0.4-0.3,0.7-0.6,0.7s-0.6-0.4-0.6-0.7v-1.3c-3.5-0.1-5.2-2.2-5.2-3.8c0-0.8,0.5-1.3,1.3-1.3c2.3,0,0.5,2.9,4,3v-4.3
				c-3.1-0.6-4.9-1.9-4.9-4.2c0-2.8,2.3-4.3,4.9-4.3v-1.1c0-0.4,0.3-0.7,0.6-0.7c0.4,0,0.6,0.4,0.6,0.7V30c1.6,0,4.9,1.1,4.9,3.1
				c0,0.8-0.6,1.3-1.3,1.3c-1.3,0-1.3-2.2-3.6-2.3V36c2.7,0.6,5.1,1.4,5.1,4.6C55.8,43.3,53.7,44.7,50.7,44.9z"/>
		</g>
	</g>
</g>
</svg>
