<?xml version="1.0" encoding="utf-8"?>
<!-- Generator: Adobe Illustrator 19.2.1, SVG Export Plug-In . SVG Version: 6.00 Build 0)  -->
<svg version="1.1" id="Layer_1" xmlns="http://www.w3.org/2000/svg" xmlns:xlink="http://www.w3.org/1999/xlink" x="0px" y="0px"
	 viewBox="0 0 100 100" style="enable-background:new 0 0 100 100;" xml:space="preserve">
<style type="text/css">
	.st0{fill:#FF9900;}
	.st1{fill:#FFFFFF;}
</style>
<polygon class="st0" points="8.1,25.8 50,1.6 91.9,25.8 91.9,74.2 50,98.4 8.1,74.2 "/>
<g>
	<polygon class="st1" points="33.6,27.9 29,27.9 27.5,54.7 35.1,54.7 	"/>
	<polygon class="st1" points="45.6,27.9 40.9,27.9 39.5,54.7 47,54.7 	"/>
	<path class="st1" d="M49,46.3v11.4H25v14.4h50V41.7L49,46.3z M36.2,67.6H28v-5.3h8.2V67.6z M48.1,67.6h-8.2v-5.3h8.2V67.6z
		 M60.1,67.6h-8.2v-5.3h8.2V67.6z M60.1,58.3h-8.2V53h8.2V58.3z M72.1,67.6h-8.2v-5.3h8.2V67.6z M72.1,58.3h-8.2V53h8.2V58.3z"/>
</g>
</svg>
