<?xml version="1.0" encoding="utf-8"?>
<!-- Generator: Adobe Illustrator 19.2.1, SVG Export Plug-In . SVG Version: 6.00 Build 0)  -->
<svg version="1.1" id="Layer_1" xmlns="http://www.w3.org/2000/svg" xmlns:xlink="http://www.w3.org/1999/xlink" x="0px" y="0px"
	 viewBox="0 0 100 100" style="enable-background:new 0 0 100 100;" xml:space="preserve">
<style type="text/css">
	.st0{fill:#FF9900;}
	.st1{fill:#FFFFFF;}
</style>
<polygon class="st0" points="8.1,25.8 50,1.6 91.9,25.8 91.9,74.2 50,98.4 8.1,74.2 "/>
<g>
	<path class="st1" d="M80,53.6l-7.1,14.8c-0.9,1.7-2.7,2.8-4.6,2.8H26.6c-0.8,0-1.3-0.8-0.9-1.5l0,0c0.6-1.1,0.2-2.5-0.8-3.2h-0.1
		C22.4,64.7,21,61.9,21,59v-3.3h37.2l0,0c0-1.1,0.9-2,2-2H80V53.6z M56.1,41.2h-7.2c-0.6,0-1,0.5-1,1v11.4c0,0.6,0.5,1,1,1h7.2
		c0.6,0,1-0.5,1-1V42.3C57.2,41.7,56.7,41.2,56.1,41.2z M68.5,45.4h-8.3c-0.6,0-1,0.5-1,1v4.1c0,0.6,0.5,1,1,1h8.3c0.6,0,1-0.5,1-1
		v-4.1C69.6,45.8,69.1,45.4,68.5,45.4z M36.5,54.6h8.3c0.6,0,1-0.5,1-1v-8.3c0-0.6-0.5-1-1-1h-8.3c-0.6,0-1,0.5-1,1v8.3
		C35.5,54.2,36,54.6,36.5,54.6z M36,39.2l-2.6,2.1v13.4H23.1V41.2H20v-2.1h7.2v-3h-2.7V35h2.7v-6.1h1V35h2.7v1.2h-2.7v3H36L36,39.2z
		 M31.6,47.7h-3.4v3.1h3.4V47.7z M31.6,42.7h-3.4v3.1h3.4V42.7z"/>
</g>
</svg>
