<?xml version="1.0" encoding="utf-8"?>
<!-- Generator: Adobe Illustrator 19.2.1, SVG Export Plug-In . SVG Version: 6.00 Build 0)  -->
<svg version="1.1" id="Layer_1" xmlns="http://www.w3.org/2000/svg" xmlns:xlink="http://www.w3.org/1999/xlink" x="0px" y="0px"
	 viewBox="0 0 100 100" style="enable-background:new 0 0 100 100;" xml:space="preserve">
<style type="text/css">
	.st0{fill:#FF9900;}
	.st1{fill:#FFFFFF;}
</style>
<polygon class="st0" points="8.1,25.8 50,1.6 91.9,25.8 91.9,74.2 50,98.4 8.1,74.2 "/>
<g>
	<g>
		<path class="st1" d="M67.3,31.4l-0.1-0.1l-2.8-1.8c-0.1-0.1-0.3-0.1-0.4,0.1l-0.6,0.7l-0.6-2.1c0-0.1-0.1-0.1-0.1-0.2l-3.6-2.7
			c-0.1-0.1-0.2-0.1-0.3,0l-3.3,1.4l-3.7,0.6l-3.2-1.6l0,0l-2.7-0.9c-0.1,0-0.2,0-0.3,0l-2.3,1.7l-3-0.1c-0.1,0-0.1,0-0.2,0.1
			l-3.3,2.3c-0.1,0.1-0.1,0.2-0.1,0.3v1l-2.2,1.8l0,0L30,36.5h40L67.3,31.4z"/>
		<path class="st1" d="M71.5,38.8H28.6c-0.6,0-1,0.5-1,1v10.8c0,0.1,0,0.2,0.1,0.4l4.1,11.2c0.2,0.4,0.5,0.7,1,0.7h34.8
			c0.4,0,0.8-0.3,1-0.7L72.4,51c0-0.1,0.1-0.2,0.1-0.4V39.9C72.5,39.3,72,38.8,71.5,38.8z M65.2,53.5c0,0.3-0.2,0.5-0.5,0.5H35.3
			c-0.3,0-0.5-0.2-0.5-0.5v-2.1c0-0.3,0.2-0.5,0.5-0.5h29.4c0.3,0,0.5,0.2,0.5,0.5V53.5L65.2,53.5z M65.2,45.5
			c0,0.3-0.2,0.5-0.5,0.5H35.3c-0.3,0-0.5-0.2-0.5-0.5v-2.1c0-0.3,0.2-0.5,0.5-0.5h29.4c0.3,0,0.5,0.2,0.5,0.5V45.5L65.2,45.5z"/>
		<path class="st1" d="M69.8,65.5H30.2c-0.9,0-1.6,0.7-1.6,1.6s0.7,1.6,1.6,1.6h2.4c-0.3,0.6-0.5,1.3-0.5,2c0,2.5,2,4.5,4.5,4.5
			s4.5-2,4.5-4.5c0-0.7-0.2-1.4-0.5-2h3.7v2.8c0,0.3,0.2,0.5,0.5,0.5H55c0.3,0,0.5-0.2,0.5-0.5v-2.8h3.7c-0.3,0.6-0.5,1.3-0.5,2
			c0,2.5,2,4.5,4.5,4.5s4.5-2,4.5-4.5c0-0.7-0.2-1.4-0.5-2h2.4c0.9,0,1.6-0.7,1.6-1.6C71.4,66.2,70.7,65.5,69.8,65.5z"/>
	</g>
</g>
</svg>
