<?xml version="1.0" encoding="utf-8"?>
<!-- Generator: Adobe Illustrator 19.2.1, SVG Export Plug-In . SVG Version: 6.00 Build 0)  -->
<svg version="1.1" id="Layer_1" xmlns="http://www.w3.org/2000/svg" xmlns:xlink="http://www.w3.org/1999/xlink" x="0px" y="0px"
	 viewBox="0 0 100 100" style="enable-background:new 0 0 100 100;" xml:space="preserve">
<style type="text/css">
	.st0{fill:#FF9900;}
	.st1{fill:#FFFFFF;}
</style>
<polygon class="st0" points="8.1,25.8 50,1.6 91.9,25.8 91.9,74.2 50,98.4 8.1,74.2 "/>
<g>
	<path class="st1" d="M73.8,72.3h-2.5v-13c0-0.3-0.3-0.6-0.6-0.6h-2.9v-9.9l0.3,0.1c0.2,0.1,0.3,0.1,0.5,0.1c0.5,0,0.9-0.3,1.1-0.8
		l1.8-4.2c0.1-0.3,0.1-0.6,0-0.9c-0.1-0.3-0.4-0.5-0.7-0.7L44,31.4c1-1.9,1.9-3.8,2.6-5.6c0.3-0.6,0-1.3-0.7-1.6l-10.5-4.4
		c-0.6-0.3-1.3,0-1.6,0.7c-2.6,6.1-4.3,12.9-5.3,21.4c-0.1,0.5,0.2,1.1,0.8,1.3l4.5,1.9c0.5,0.2,1.1,0.1,1.4-0.4
		c2-2.5,3.7-4.8,5.2-7.1l5.3,2.2l-0.3,1.8L44.7,47L41,72.3h-8.5h-6.3c-0.7,0-1.2,0.6-1.2,1.2v5.6c0,0.7,0.6,1.2,1.2,1.2h47.5
		c0.7,0,1.2-0.6,1.2-1.2v-5.6C75,72.8,74.4,72.3,73.8,72.3z M65.3,58.7h-2.9c-0.3,0-0.6,0.3-0.6,0.6v12.9H59L55.3,47l-0.5-3.6
		l10.5,4.3V58.7L65.3,58.7z M53.1,50.3l-4.3-3.2l3.5-2.9L53.1,50.3z M51.6,52.6l-5.5,3.5l1-6.9L51.6,52.6z M53.7,54.5l1.3,9.2
		l-7.1-5.5L53.7,54.5z M48.4,72.3l7.1-5.2l0.7,5.2H48.4z M50.8,41.8l-3,2.5l0.5-3.5L50.8,41.8z M45.6,59.9l7.4,5.7l-9.2,6.7
		L45.6,59.9z"/>
</g>
</svg>
