<?xml version="1.0" encoding="utf-8"?>
<!-- Generator: Adobe Illustrator 19.2.1, SVG Export Plug-In . SVG Version: 6.00 Build 0)  -->
<svg version="1.1" id="Layer_1" xmlns="http://www.w3.org/2000/svg" xmlns:xlink="http://www.w3.org/1999/xlink" x="0px" y="0px"
	 viewBox="0 0 100 100" style="enable-background:new 0 0 100 100;" xml:space="preserve">
<style type="text/css">
	.st0{fill:#FF9900;}
	.st1{fill:#FFFFFF;}
</style>
<polygon class="st0" points="8.1,25.8 50,1.6 91.9,25.8 91.9,74.2 50,98.4 8.1,74.2 "/>
<g>
	<g>
		<path class="st1" d="M39.9,45.3l10.6-10.6l-10.3-1.6c-1.1-0.2-2.1,0.8-1.9,1.9L39.9,45.3z"/>
		<path class="st1" d="M57.5,69c-1.8,0.8-3.7,1.3-5.6,1.7l-5.6,5c-0.8,0.7-0.3,2,0.7,2h21.4c0.9,0,1.7-0.8,1.7-1.7V58.6
			c-1,1.5-2.2,2.9-3.5,4.3C64,65.5,60.9,67.6,57.5,69z"/>
		<path class="st1" d="M66.1,25.4c-0.3-0.4-0.8-0.6-1.3-0.6c-0.4,0-0.9,0.2-1.2,0.5l-9.9,9.9L40.4,48.5L29,59.9
			c-0.7,0.7-0.7,1.8,0.1,2.5c4.6,4,10.6,6.4,17.2,6.4c3.6,0,7-0.7,10.1-2c5.4-2.3,9.9-6.3,12.8-11.4c2.1-3.8,3.3-8.2,3.3-12.8
			C72.5,36,70.1,30,66.1,25.4z"/>
		<path class="st1" d="M39.9,30.2c1.2,0,2.3,0.5,3.2,1.3c0.5,0.5,1.3,0.5,1.8,0s0.5-1.3,0-1.8c-1.3-1.3-3.1-2.1-5-2.1
			c-3.9,0-7.1,3.2-7.1,7.1c0,1.9,0.7,3.7,2.1,5c0.2,0.2,0.6,0.4,0.9,0.4c0.3,0,0.6-0.1,0.9-0.4c0.5-0.5,0.5-1.3,0-1.8
			c-0.9-0.9-1.3-2-1.3-3.2C35.4,32.2,37.5,30.2,39.9,30.2z"/>
		<path class="st1" d="M32,43.5c0.3,0,0.6-0.1,0.9-0.4c0.5-0.5,0.5-1.3,0-1.8C31,39.5,30,37.1,30,34.5c0-5.3,4.3-9.7,9.7-9.7
			c2.6,0,5,1,6.8,2.8c0.5,0.5,1.3,0.5,1.8,0s0.5-1.3,0-1.8c-2.3-2.3-5.4-3.6-8.6-3.6c-3.3,0-6.3,1.3-8.6,3.6s-3.6,5.4-3.6,8.6
			c0,3.3,1.3,6.3,3.6,8.6C31.3,43.4,31.6,43.5,32,43.5z"/>
	</g>
</g>
</svg>
