<?xml version="1.0" encoding="utf-8"?>
<!-- Generator: Adobe Illustrator 19.2.1, SVG Export Plug-In . SVG Version: 6.00 Build 0)  -->
<svg version="1.1" id="Layer_1" xmlns="http://www.w3.org/2000/svg" xmlns:xlink="http://www.w3.org/1999/xlink" x="0px" y="0px"
	 viewBox="0 0 100 100" style="enable-background:new 0 0 100 100;" xml:space="preserve">
<style type="text/css">
	.st0{fill:#FF9900;}
	.st1{fill:#FFFFFF;}
</style>
<polygon class="st0" points="8.1,25.8 50,1.6 91.9,25.8 91.9,74.2 50,98.4 8.1,74.2 "/>
<g>
	<path class="st1" d="M77.5,49.1c0,12.6-9.3,23.1-21.4,25c0.1-0.6,0.1-1.1,0.1-1.7c0,0-0.1-0.6-0.2-1.4c4.3-0.7,8.2-2.7,11.3-5.5
		c-0.2-0.2-0.4-0.4-0.6-0.6c-0.8-1.2,0.3-2.4,0.3-3.4s-2.1-0.9-2.1-1.6c-0.3-2.3,1.4-2.4,2.3-3.3c0.9-0.9-0.9-3-2.1-2.8
		c-1.2,0.1-4.5-0.5-4.2-3.1c0.4-3.1-3.9-2.8-4.5-4.2c-0.9-2.1,0.6-4.7,2.5-5.2c2.7-0.8,5.5-3.1,5.2-5.6c-0.2-2.8-1.5-5.4-3.6-6.9
		c-2.2-0.9-4.6-1.4-7-1.6c-2.2,0.1-4.2,0.6-4.1,1.6c0.2,2.5,7.3,3.1,6.1,5.4c-0.6,1.2-5.2,2.9-4.4,4.7c0.6,1.2,1.9,0.2,1.4,2.4
		c-0.2,1-1.1,3-2.5,3.1s-2.6-3.6-6.5-3.8c-1.8-0.1-4.4,2.9-2.2,4.9c1.3,1.3,3.8-1.5,4.6,0.6c0.5,1.5-0.1,4.7,2.3,6
		c0.9,0.5,2.2,0.9,3.6,1.6c-2,0.4-4.4,1.2-7.3,2.3l-2.4-0.6c1-0.8,2.7-1.4,2.2-3.3c-0.6-2.7-5.3-1.7-8.6-4.9c-1-1-3.1-4.3-3.1-8.3
		c-1.6,3.1-2.5,6.6-2.5,10.3c0,1.1,0.1,2.3,0.3,3.4h-0.1c-1,0-2,0.2-3,0.6c-0.2-1.3-0.3-2.6-0.3-4c0-13.9,11.3-25.3,25.3-25.3
		C66.2,23.8,77.5,35.1,77.5,49.1z M58.5,56.4l-6.2,2.8l0.1-1.3l4-1.8c-0.6,0-1.2-0.1-1.8-0.1c-2.2,0-5.9,1.1-10.1,2.8l-13.2-3.5
		c-1.2-0.3-2.6-0.1-3.6,0.6L27,56.3c-0.6,0.4-0.6,1.3,0,1.7l8,5.2c-1.9,1-3.7,2-5.3,2.9l-4.1-2.2c-0.7-0.4-1.5-0.4-2.2-0.1L23.1,64
		c-0.6,0.2-0.8,0.9-0.5,1.5l2.2,4l0,0c-0.8,0.7-1.3,1.3-1.3,1.8c0,1.3,1.5,1.6,2.9,1.6c2.4,0,34.5-7.3,34.5-14
		C60.9,57.4,60,56.8,58.5,56.4z M45,69.4l7.1-2.5c0.3-0.1,0.6,0.1,0.7,0.4l0.6,5.3c0.2,1.3-0.6,2.6-1.8,3.2L51,76.1
		c-0.4,0.2-0.9,0.1-1.2-0.3l-4.9-5.6C44.6,70,44.7,69.5,45,69.4z"/>
</g>
</svg>
